# xmcd
#
# Track frame offsets: 
#        150
#        11406
#        22995
#        35763
#        50134
#        63363
#        76994
#        91064
#        104867
#        115899
#        128602
#        138184
#        149447
#
# Disc length: 2152 seconds
#
# Revision: 0
# Processed by: cddbd v1.5.2PL0 Copyright (c) Steve Scherf et al.
# Submitted via: ExactAudioCopy v1.1
#
DISCID=ae08660d
DTITLE=The Flamingos - The Flamingos
DYEAR=1958
DGENRE=Soul
TTITLE0=Dream Of A Lifetime
TTITLE1=Kokomo
TTITLE2=Whispering Stars
TTITLE3=On My Merry Way
TTITLE4=The Vow
TTITLE5=Would I Be Crying
TTITLE6=I'll Be Home
TTITLE7=A Kiss From Your Lips
TTITLE8=Shilly Dilly
TTITLE9=Stolen Love
TTITLE10=Chickie Um Bah
TTITLE11=Nobody's Love
TTITLE12='Chicka Boom' That's My Body
EXTD=
EXTT0=
EXTT1=
EXTT2=
EXTT3=
EXTT4=
EXTT5=
EXTT6=
EXTT7=
EXTT8=
EXTT9=
EXTT10=
EXTT11=
EXTT12=
PLAYORDER=
